<?xml version="1.0" standalone="no"?><!DOCTYPE svg PUBLIC "-//W3C//DTD SVG 1.1//EN" "http://www.w3.org/Graphics/SVG/1.1/DTD/svg11.dtd"><svg t="1591856725749" class="icon" viewBox="0 0 1024 1024" version="1.1" xmlns="http://www.w3.org/2000/svg" p-id="8212" xmlns:xlink="http://www.w3.org/1999/xlink" width="200" height="200"><defs><style type="text/css"></style></defs><path d="M928 32v960H96V32h832z m-150.4 832V160H246.4v704h531.2z" p-id="8213"></path><path d="M464 649.6h256v128h-256z" p-id="8214"></path><path d="M368 713.6m-64 0a64 64 0 1 0 128 0 64 64 0 1 0-128 0Z" p-id="8215"></path><path d="M464 448h256v128h-256z" p-id="8216"></path><path d="M368 512m-64 0a64 64 0 1 0 128 0 64 64 0 1 0-128 0Z" p-id="8217"></path><path d="M464 246.4h256v128h-256z" p-id="8218"></path><path d="M368 310.4m-64 0a64 64 0 1 0 128 0 64 64 0 1 0-128 0Z" p-id="8219"></path></svg>