<?xml version="1.0" standalone="no"?><!DOCTYPE svg PUBLIC "-//W3C//DTD SVG 1.1//EN" "http://www.w3.org/Graphics/SVG/1.1/DTD/svg11.dtd"><svg t="1591856842082" class="icon" viewBox="0 0 1024 1024" version="1.1" xmlns="http://www.w3.org/2000/svg" p-id="9004" xmlns:xlink="http://www.w3.org/1999/xlink" width="200" height="200"><defs><style type="text/css"></style></defs><path d="M127.968 711.664 269.44 711.664 269.44 889.888 127.968 889.888 127.968 711.664Z" p-id="9005"></path><path d="M343.712 528.944 488.704 528.944 488.704 889.888 343.712 889.888 343.712 528.944Z" p-id="9006"></path><path d="M559.44 598.496 703.264 598.496 703.264 889.888 559.44 889.888 559.44 598.496Z" p-id="9007"></path><path d="M775.184 421.664 920.192 421.664 920.192 889.888 775.184 889.888 775.184 421.664Z" p-id="9008"></path><path d="M89.072 534.832 425.056 225.968 617.872 415.392 799.936 203.568 733.92 134.112 920.192 134.112 920.192 314.384 855.072 247.264 617.872 534.368 422.992 334.016 135.824 601.376 89.072 534.832Z" p-id="9009"></path></svg>