<?xml version="1.0" standalone="no"?><!DOCTYPE svg PUBLIC "-//W3C//DTD SVG 1.1//EN" "http://www.w3.org/Graphics/SVG/1.1/DTD/svg11.dtd"><svg t="1611050011325" class="icon" viewBox="0 0 1024 1024" version="1.1" xmlns="http://www.w3.org/2000/svg" p-id="4801" xmlns:xlink="http://www.w3.org/1999/xlink" width="200" height="200"><defs><style type="text/css"></style></defs><path d="M395.36 212.64a16 16 0 0 0-22.72 0l-113.12 113.12-56.48-56.48a16 16 0 0 0-22.72 0 16 16 0 0 0 0 22.56l67.84 68a17.76 17.76 0 0 0 6.56 3.68 16.96 16.96 0 0 0 10.88 0 19.04 19.04 0 0 0 5.28-3.52l124.48-124.48a16 16 0 0 0 0-22.88z" fill="#B8B8B8" p-id="4802"></path><path d="M448 208m24 0l336 0q24 0 24 24l0 0q0 24-24 24l-336 0q-24 0-24-24l0 0q0-24 24-24Z" fill="#B8B8B8" p-id="4803"></path><path d="M448 336m24 0l336 0q24 0 24 24l0 0q0 24-24 24l-336 0q-24 0-24-24l0 0q0-24 24-24Z" fill="#B8B8B8" p-id="4804"></path><path d="M448 480m24 0l336 0q24 0 24 24l0 0q0 24-24 24l-336 0q-24 0-24-24l0 0q0-24 24-24Z" fill="#B8B8B8" p-id="4805"></path><path d="M272 464a48 48 0 1 1-48 48 48 48 0 0 1 48-48m0-32a80 80 0 1 0 80 80 80 80 0 0 0-80-80zM272 704a48 48 0 1 1-48 48 48 48 0 0 1 48-48m0-32a80 80 0 1 0 80 80 80 80 0 0 0-80-80z" fill="#B8B8B8" p-id="4806"></path><path d="M960 128v424a24 24 0 0 1-48 0V128a16 16 0 0 0-16-16H128a16 16 0 0 0-16 16v768a16 16 0 0 0 16 16h392a24 24 0 0 1 0 48H128a64 64 0 0 1-64-64V128a64 64 0 0 1 64-64h768a64 64 0 0 1 64 64z" fill="#B8B8B8" p-id="4807"></path><path d="M955.36 932.64l-96-96a160 160 0 1 0-22.56 22.56l96 96a16 16 0 0 0 22.72-22.72zM608 736a128 128 0 1 1 128 128 128 128 0 0 1-128-128z" fill="#B8B8B8" p-id="4808"></path></svg>