<?xml version="1.0" standalone="no"?><!DOCTYPE svg PUBLIC "-//W3C//DTD SVG 1.1//EN" "http://www.w3.org/Graphics/SVG/1.1/DTD/svg11.dtd"><svg t="1611803285695" class="icon" viewBox="0 0 1024 1024" version="1.1" xmlns="http://www.w3.org/2000/svg" p-id="17463" width="200" height="200" xmlns:xlink="http://www.w3.org/1999/xlink"><defs><style type="text/css"></style></defs><path d="M242.37633 460.755004h-37.596328V343.366468c0-19.898057-16.298408-36.196465-36.196465-36.196465h-29.997071c-19.898057 0-36.196465 16.298408-36.196465 36.196465v117.388536H64.793672C28.997168 460.755004 0 489.752173 0 525.548677v280.072649c0 35.796504 28.997168 64.793672 64.793672 64.793673h37.596329v117.388536c0 19.898057 16.298408 36.196465 36.196465 36.196465h29.997071c19.898057 0 36.196465-16.298408 36.196465-36.196465V870.315008h37.596328c35.796504 0 64.793672-28.997168 64.793673-64.793672v-279.972659c0-35.796504-28.997168-64.793672-64.793673-64.793673zM609.440484 153.585001h-46.295479V36.196465C563.145005 16.298408 546.846597 0 526.94854 0h-29.99707c-19.898057 0-36.196465 16.298408-36.196466 36.196465v117.388536h-46.295479c-30.996973 0-56.094522 25.097549-56.094522 56.094522v297.37096c0 30.996973 25.097549 56.094522 56.094522 56.094522h46.295479v117.388537c0 19.898057 16.298408 36.196465 36.196466 36.196465h29.99707c19.898057 0 36.196465-16.298408 36.196465-36.196465V563.145005h46.295479c30.996973 0 56.094522-25.097549 56.094522-56.094522V209.679523c0-30.996973-25.097549-56.094522-56.094522-56.094522zM959.106337 460.755004h-37.596328V343.366468c0-19.898057-16.298408-36.196465-36.196465-36.196465h-29.997071c-19.898057 0-36.196465 16.298408-36.196465 36.196465v117.388536h-37.596329c-35.796504 0-64.793672 28.997168-64.793672 64.793673v280.072649c0 35.796504 28.997168 64.793672 64.793672 64.793673h37.596329v117.388536c0 19.898057 16.298408 36.196465 36.196465 36.196465h29.997071c19.898057 0 36.196465-16.298408 36.196465-36.196465V870.315008h37.596328c35.796504 0 64.793672-28.997168 64.793673-64.793672v-279.972659c0-35.796504-28.997168-64.793672-64.793673-64.793673z" fill="#bfcbd9" p-id="17464"></path></svg>