<?xml version="1.0" standalone="no"?><!DOCTYPE svg PUBLIC "-//W3C//DTD SVG 1.1//EN" "http://www.w3.org/Graphics/SVG/1.1/DTD/svg11.dtd"><svg t="1611135198315" class="icon" viewBox="0 0 1024 1024" version="1.1" xmlns="http://www.w3.org/2000/svg" p-id="2587" xmlns:xlink="http://www.w3.org/1999/xlink" width="200" height="200"><defs><style type="text/css"></style></defs><path d="M78.186 463.802c0 17.759 64.939 54.195 106.683 77.619 9.169 5.15 17.24 9.682 23.877 13.636h0.027l146.916 88.626 3.116 1.883v3.67l0.044 240.052c0.844 11.891 2.467 22.252 6.832 29.229l-0.02 0.013c3.85 6.15 10.467 9.868 21.758 9.868 25.825 0 29.019-25.038 29.019-53.181 0-6.257-0.095-11.036-0.187-15.678-0.091-4.935-0.195-9.877-0.208-14.853-0.053-25.628-0.034-51.269-0.02-76.905l0.012-53.404c0-12.786-0.37-23.188-0.655-31.689-1.369-40.136-1.428-41.778 36.128-70.771 12.525-9.665 23.611-19.677 34.739-29.737 11.337-10.238 22.767-20.56 35.408-30.396 11.65-9.063 22.586-19.018 33.374-28.83 11.162-10.162 22.22-20.212 33.943-29.216 22.138-17 54.332-45.641 86.485-74.237 33.195-29.525 66.373-59.031 88.951-76.128 15.49-11.732 23.618-22.213 26.856-31.167 2.172-6.004 2.042-11.278 0.48-15.667-1.57-4.428-4.638-8.128-8.267-10.909-4.882-3.734-10.617-5.772-15.174-5.772-12.936 0-33.683 19.565-44.528 29.792l-2.408 2.258-0.235 0.204-70.011 59.997c-6.062 5.636-9.877 8.409-13.75 11.226l-0.016-0.018c-3.124 2.278-6.338 4.615-11.244 8.992l-0.105 0.079-212.984 182.92-0.006-0.009c-28.986 26.259-29.733 25.791-58.998 6.578l-0.012 0.021c-6.149-4.031-13.76-9.027-22.856-14.482-4.896-2.933-13.117-8.006-23.202-14.218-40.816-25.16-113.045-69.685-127.475-73.049l-19.272-4.493 18.207-7.786 691.605-295.682 9.031-3.856v9.818c0 19.402-4.784 40.771-9.031 59.804-1.807 8.095-3.531 15.778-4.735 22.85-2.66 15.57-5.491 29.965-8.185 43.711-2.465 12.617-4.841 24.709-6.851 36.467l-0.024 0.104-60.841 320.037c-4.418 26.589-9.186 53.979-14.295 80.929-5.166 27.288-10.683 54.076-16.5 79.058l-2.123 9.129-7.795-5.228c-23.83-15.959-48.368-31.389-73.109-46.925-14.539-9.137-29.168-18.33-43.016-27.215-5.32-3.408-12.618-8.465-20.95-14.226-32.218-22.284-80.766-55.857-104.889-55.857-0.936 0-6.889 2.478-12.857 7.314-3.273 2.648-6.247 5.972-7.727 9.849-1.383 3.616-1.493 7.957 0.708 13.014 3.61 8.29 12.896 18.298 31.316 30.123 12.603 8.083 24.636 15.414 36.481 22.614 16.63 10.117 32.902 20.019 49.923 31.519l4.174 2.823c38.882 26.287 148.359 100.288 173.621 100.288 7.087 0 12.033-4.467 15.523-10.564 4.101-7.18 6.371-16.577 7.729-24.551l0.024-0.105 133.674-708.343v-0.045c0.863-4.356 1.774-8.201 2.629-11.856 3.474-14.688 6.167-26.09-2.791-37.149-14.254-17.57-42.226-4.902-73.924 9.456-5.63 2.544-11.431 5.181-16.557 7.39-32.649 14.096-65.845 27.835-99.007 41.563-32.063 13.266-64.16 26.556-98.641 41.438l-0.081 0.027L156.54 411.831l-0.104 0.024c-4.318 1.714-8.693 3.313-13.355 5.008-26.981 9.825-64.895 23.641-64.895 46.939z" fill="#8B8B8C" p-id="2588"></path></svg>