<?xml version="1.0" standalone="no"?><!DOCTYPE svg PUBLIC "-//W3C//DTD SVG 1.1//EN" "http://www.w3.org/Graphics/SVG/1.1/DTD/svg11.dtd"><svg t="1581388787187" class="icon" viewBox="0 0 1025 1024" version="1.1" xmlns="http://www.w3.org/2000/svg" p-id="1935" xmlns:xlink="http://www.w3.org/1999/xlink" width="200.1953125" height="200"><defs><style type="text/css"></style></defs><path d="M1005.21728 788.06016c-108.896-162.48064-316.5568-495.15264-424.91776-656.8384-23.60832-29.52064-79.18976-46.41792-113.344 0C358.85184 292.5248 124.3904 642.35776 15.15392 805.35168c-25.75232 35.70432-25.31712 84.21632 54.41152 86.89408l908.34176 0C1031.264 889.33376 1031.264 826.35648 1005.21728 788.06016zM523.35616 788.06016c-28.77056 0-52.09344-23.3216-52.09344-52.09344s23.3216-52.09344 52.09344-52.09344 52.09344 23.3216 52.09344 52.09344S552.12672 788.06016 523.35616 788.06016zM562.4256 605.7344c0.47104 12.70272-12.06784 26.04672-26.04672 26.04672l-26.04672 0c-13.97888 0-25.57568-13.344-26.04672-26.04672l-26.04672-247.44192c0-21.57952 17.49248-39.06944 39.06944-39.06944l52.09344 0c21.57696 0 39.06944 17.48992 39.06944 39.06944L562.4256 605.7344z" p-id="1936" ></path></svg>