<?xml version="1.0" standalone="no"?><!DOCTYPE svg PUBLIC "-//W3C//DTD SVG 1.1//EN" "http://www.w3.org/Graphics/SVG/1.1/DTD/svg11.dtd"><svg t="1591944249564" class="icon" viewBox="0 0 1024 1024" version="1.1" xmlns="http://www.w3.org/2000/svg" p-id="3820" xmlns:xlink="http://www.w3.org/1999/xlink" width="200" height="200"><defs><style type="text/css"></style></defs><path d="M646.8 645.8v47H359.2c0-71.7 32.7-124.7 98.2-159l56.1-31.4c54.5-25.4 80.3-56.7 77.2-94.1-4.7-46.3-32.7-70.2-84.2-71.7-54.6 0-82.6 32.9-84.2 98.6h-53.8c0-94.1 48.3-142.6 145-145.6 82.6 6 127 46.3 133.3 121 3.1 56.8-35.1 101.6-114.6 134.4l-44.4 24.6c-42.1 22.4-65.5 47.8-70.1 76.2h229.1z m249.5-498.1s-99.6 37.7-189.2 38.2c-89.7 0.6-195.1-87.8-195.1-87.8S406.6 186.5 316.9 186c-89.7-0.6-189.2-38.2-189.2-38.2L98 246.5s30.3 10 40.8 59.7c10.5 49.6-4.6 138.6 20.2 267.4 28 145 100.2 217.2 185.6 279.7 82 60 161.1 72 167.3 72.8v0.1h0.4v-0.1c6.2-0.9 85.3-12.8 167.3-72.8 85.4-62.5 157.6-134.6 185.6-279.7 24.8-128.8 9.7-217.7 20.2-267.4 10.5-49.6 40.8-59.7 40.8-59.7l-29.9-98.8z" fill="" p-id="3821"></path></svg>