<?xml version="1.0" standalone="no"?><!DOCTYPE svg PUBLIC "-//W3C//DTD SVG 1.1//EN" "http://www.w3.org/Graphics/SVG/1.1/DTD/svg11.dtd"><svg t="1610681716888" class="icon" viewBox="0 0 1024 1024" version="1.1" xmlns="http://www.w3.org/2000/svg" p-id="2360" xmlns:xlink="http://www.w3.org/1999/xlink" width="200" height="200"><defs><style type="text/css"></style></defs><path d="M722.9375 881.140625H301.0625s-52.734375 0-48.515625 18.984375c-4.21875-18.984375 0 33.75 0 33.75h519.43359375v-33.75C771.453125 881.66796875 740.8671875 881.140625 722.9375 881.140625zM828.40625 90.125H195.59375C141.8046875 90.125 90.125 135.4765625 90.125 191.375V670.203125c0 55.8984375 51.6796875 105.46875 105.46875 105.46875h210.9375l7.91015625 23.203125c0 18.45703125 26.89453125 29.53125 44.82421875 29.53125h105.46875c17.9296875 0 44.82421875-13.18359375 44.82421875-29.53125L617.46875 775.671875h210.9375c53.7890625 0 105.46875-49.5703125 105.46875-105.46875V195.59375c0-55.8984375-43.76953125-105.46875-97.55859375-105.46875H828.40625zM195.59375 617.46875c-17.9296875 0-52.734375-34.27734375-52.734375-52.734375V195.59375c0-18.45703125 34.8046875-52.734375 52.734375-52.734375h632.8125c17.9296875 0 52.734375 34.27734375 52.734375 52.734375v369.140625c0 18.45703125-34.8046875 52.734375-52.734375 52.734375H195.59375z m553.18359375-374.4140625L641.7265625 354.32421875l-74.35546875-77.51953125a31.32421875 31.32421875 0 0 0-27.421875-9.4921875c-10.01953125 1.0546875-18.45703125 7.3828125-23.73046875 16.34765625L419.71484375 459.265625l-40.078125-103.88671875a33.22265625 33.22265625 0 0 0-23.73046875-20.56640625c-10.546875-2.109375-21.62109375 1.58203125-29.00390625 9.4921875l-97.55859375 101.25c-12.65625 13.18359375-12.65625 34.27734375 0 47.98828125 12.65625 13.18359375 33.22265625 13.18359375 45.87890625 0l62.75390625-65.390625 46.40625 121.2890625c4.74609375 12.12890625 15.29296875 20.0390625 27.94921875 21.09375h2.109375c11.6015625 0 22.1484375-6.328125 27.94921875-16.875l108.6328125-197.75390625 67.5 70.13671875c12.65625 13.18359375 33.22265625 13.18359375 45.87890625 0L794.12890625 291.04296875c12.65625-13.18359375 12.65625-34.27734375 0-47.98828125a30.95507812 30.95507812 0 0 0-45.3515625 0z m0 0" p-id="2361"></path></svg>