<?xml version="1.0" standalone="no"?><!DOCTYPE svg PUBLIC "-//W3C//DTD SVG 1.1//EN" "http://www.w3.org/Graphics/SVG/1.1/DTD/svg11.dtd"><svg t="1611803325292" class="icon" viewBox="0 0 1024 1024" version="1.1" xmlns="http://www.w3.org/2000/svg" p-id="19872" xmlns:xlink="http://www.w3.org/1999/xlink" width="200" height="200"><defs><style type="text/css"></style></defs><path d="M818 856.7l-607.95 0.9c-15.75 0-28.35 13.05-28.35 29.25 0 15.75 12.6 29.25 28.35 29.25l607.95-0.9c7.2 0 13.5-2.7 18.45-7.2 5.85-5.4 9.45-13.05 9.45-22.05 0.45-16.2-12.6-29.25-27.9-29.25z m-9.9-747H219.5c-62.1 0-112.5 51.75-112.5 115.65V705.5c0 63.9 50.4 115.65 112.5 115.65h588.6c62.1 0 112.5-52.2 112.5-115.65V225.35c0-63.45-50.4-115.65-112.5-115.65zM773 353.6l-220.05 240.75c-7.2 7.65-18.9 6.75-24.75-2.25l-90-139.05c-5.4-8.55-16.65-9.9-23.85-2.7L292.85 566c-9.45 9-31.5 11.7-41.85 0-9-10.35-5.85-29.7 4.5-40.5l164.7-154.8c7.2-6.75 18.45-5.4 23.85 2.7l88.65 136.8c5.85 8.55 17.55 9.9 24.75 2.25L737 316.7c9-9.9 28.8-10.8 39.6 0.45 10.35 12.15 5.4 26.55-3.6 36.45z" p-id="19873" fill="#bfcbd9"></path></svg>